# AST/ASF file generated using VICON BodyLanguage
# -----------------------------------------------
:version 1.10
:name VICON
:units
  mass 1.0
  length 0.45
  angle deg
:documentation
   .ast/.asf automatically generated from VICON data using
   VICON BodyBuilder and BodyLanguage model FoxedUp or BRILLIANT.MOD
:root
   order TX TY TZ RX RY RZ
   axis XYZ
   position 0 0 0  
   orientation 0 0 0 
:bonedata
  begin
     id 1 
     name lhipjoint
     direction 0.734343 -0.627749 0.258209 
     length 2.5437 
     axis 0 0 0  XYZ
  end
  begin
     id 2 
     name lfemur
     direction 0.34202 -0.939693 0  
     length 6.7391  
     axis 0 0 20  XYZ
    dof rx ry rz
    limits (-160.0 20.0)
           (-70.0 70.0)
           (-60.0 70.0)
  end
  begin
     id 3 
     name ltibia
     direction 0.34202 -0.939693 0   
     length 7.21536   
     axis 0 0 20   XYZ
    dof rx
    limits (-10.0 170.0)
  end
  begin
     id 4 
     name lfoot
     direction 0.0489572 -0.134509 0.989702   
     length 1.61313   
     axis -90 7.62852e-016 20   XYZ
    dof rx rz
    limits (-45.0 90.0)
           (-70.0 20.0)
  end
  begin
     id 5 
     name ltoes
     direction 1.53451e-011 -4.21692e-011 1   
     length 0.823104   
     axis -90 7.62852e-016 20   XYZ
    dof rx
    limits (-90.0 20.0)
  end
  begin
     id 6 
     name rhipjoint
     direction -0.746398 -0.615468 0.253157   
     length 2.59446  
     axis 0 0 0  XYZ 
  end
  begin
     id 7 
     name rfemur
     direction -0.34202 -0.939693 0   
     length 6.7075   
     axis 0 0 -20   XYZ
    dof rx ry rz
    limits (-160.0 20.0)
           (-70.0 70.0)
           (-70.0 60.0)
  end
  begin
     id 8 
     name rtibia
     direction -0.34202 -0.939693 0   
     length 7.27262   
     axis 0 0 -20   XYZ
    dof rx
    limits (-10.0 170.0)
 end
 begin
     id 9 
     name rfoot
     direction -0.0455203 -0.125066 0.991104   
     length 1.91095  
     axis -90 -7.62852e-016 -20   XYZ
    dof rx rz
    limits (-45.0 90.0)
           (-20.0 70.0)
  end
  begin
     id 10 
     name rtoes
     direction -1.53601e-011 -4.21913e-011 1   
     length 0.969037   
     axis -90 -7.62852e-016 -20   XYZ
    dof rx
    limits (-90.0 20.0)
  end
  begin
     id 11 
     name lowerback
     direction 0.0181546 0.999122 -0.0377542   
     length 1.99916   
     axis 0 0 0   XYZ
    dof rx ry rz
    limits (-20.0 45.0)
           (-30.0 30.0)
           (-30.0 30.0)
  end
  begin
     id 12 
     name upperback
     direction 0.0203486 0.99589 0.0882534   
     length 1.951   
     axis 0 0 0   XYZ
    dof rx ry rz
    limits (-20.0 45.0)
           (-30.0 30.0)
           (-30.0 30.0)
  end
  begin
     id 13 
     name thorax
     direction 0.0131685 0.994241 0.106355   
     length 1.97461   
     axis 0 0 0   XYZ
    dof rx ry rz
    limits (-20.0 45.0)
           (-30.0 30.0)
           (-30.0 30.0)
  end
  begin
     id 14 
     name lowerneck
     direction -0.0281395 0.999325 0.023617   
     length 1.7959   
     axis 0 0 0   XYZ
    dof rx ry rz
    limits (-20.0 45.0)
           (-30.0 30.0)
           (-30.0 30.0)
  end
  begin
     id 15 
     name upperneck
     direction 0.0288721 0.991984 -0.123019   
     length 1.79917   
     axis 0 0 0   XYZ
    dof rx ry rz
    limits (-20.0 45.0)
           (-30.0 30.0)
           (-30.0 30.0)
  end
  begin
     id 16
     name head
     direction 0.0133797 0.998944 -0.0439492  
     length 1.80902  
     axis 0 0 0   XYZ
    dof rx ry rz
    limits (-20.0 45.0)
           (-30.0 30.0)
           (-30.0 30.0)
  end
  begin
     id 17 
     name lclavicle
     direction 0.919195 0.377107 0.113449  
     length 3.17815  
     axis 0 0 0   XYZ
    dof ry rz
    limits (-20.0 10.0)
           (0.0 20.0)
  end
  begin
     id 18 
     name lhumerus
     direction 1 -4.48959e-011 2.13129e-027   
     length 4.84137   
     axis 180 -30 -90   XYZ
    dof rx ry rz
    limits (-60.0 90.0)
           (-90.0 90.0)
           (-90.0 90.0)
  end
  begin
     id 19
     name lradius
     direction 1 -4.48957e-011 -6.30627e-028   
     length 3.2452   
     axis 180 -30 -90   XYZ
    dof rx
    limits (-10.0 170.0)
  end
  begin
     id 20
     name lwrist
     direction 1 -4.4901e-011 9.13299e-027   
     length 1.6226   
     axis -6.84618e-015 90 90   XYZ
    dof ry
    limits (-180.0 0.0)
 end
  begin
     id 21 
     name lhand
     direction 1 -4.48816e-011 1.82293e-026   
     length 0.521221   
     axis -1.16502e-014 90 90   XYZ
    dof rx rz
    limits (-90.0 90.0)
           (-45.0 45.0)
  end
  begin
     id 22 
     name lfingers
     direction 1 -4.49108e-011 3.65687e-026   
     length 0.420221   
     axis -2.33008e-014 90 90   XYZ
    dof rx
    limits (0.0 90.0)
  end
  begin
     id 23
     name lthumb
     direction 0.707107 -6.34943e-011 0.707107   
     length 0.603356   
     axis -90 45 5.69224e-014   XYZ
    dof rx rz
    limits (-45.0 45.0)
           (-45.0 45.0)
  end
  begin
     id 24 
     name rclavicle
     direction -0.90847 0.38596 0.160368   
     length 3.12973  
     axis 0 0 0   XYZ 
    dof ry rz
    limits (-10.0 20.0)
           (-20.0 0.0)
  end
  begin
     id 25 
     name rhumerus
     direction -1 -4.48974e-011 4.47268e-028  
     length 4.72284   
     axis 180 30 90   XYZ
    dof rx ry rz
    limits (-90.0 60.0)
           (-90.0 90.0)
           (-90.0 90.0)
  end
  begin
     id 26 
     name rradius
     direction -1 -4.48969e-011 3.43203e-027   
     length 3.23459   
     axis 180 30 90   XYZ
    dof rx
    limits (-10.0 170.0)
  end
  begin
     id 27 
     name rwrist
     direction -1 -4.48969e-011 9.12911e-027   
     length 1.6173   
     axis -6.84618e-015 -90 -90   XYZ
    dof ry
    limits (-180.0 0.0)
  end
  begin
     id 28
     name rhand
     direction -1 -4.49194e-011 1.83006e-026   
     length 0.307416   
     axis -1.16502e-014 -90 -90   XYZ
    dof rx rz
    limits (-90.0 90.0)
           (-45.0 45.0)
  end
  begin
     id 29
     name rfingers
     direction -1 -4.48423e-011 3.63103e-026   
     length 0.247847   
     axis -2.33008e-014 -90 -90   XYZ
    dof rx
    limits (0.0 90.0)
  end
  begin
     id 30
     name rthumb
     direction -0.707107 -6.34802e-011 0.707107   
     length 0.35586   
     axis -90 -45 -5.69224e-014   XYZ
    dof rx rz
    limits (-45.0 45.0)
           (-45.0 45.0)
  end
:hierarchy
  begin
    root lhipjoint rhipjoint lowerback
    lhipjoint lfemur
    lfemur ltibia
    ltibia lfoot
    lfoot ltoes
    rhipjoint rfemur
    rfemur rtibia
    rtibia rfoot
    rfoot rtoes
    lowerback upperback
    upperback thorax
    thorax lowerneck lclavicle rclavicle
    lowerneck upperneck
    upperneck head
    lclavicle lhumerus
    lhumerus lradius
    lradius lwrist
    lwrist lhand lthumb
    lhand lfingers
    rclavicle rhumerus
    rhumerus rradius
    rradius rwrist
    rwrist rhand rthumb
    rhand rfingers
  end

#!OML:ASF H:\Terrain\Patient Classification 1\Animal1\Tuesday\Animal1.ASF
:FULLY-SPECIFIED
:DEGREES
672
root 6.4623 16.2358 -3.90977 20.976 -40.9748 -1.08098
lowerback 3.53892 -0.918007 -0.609779
upperback -10.8359 -1.19702 2.65374
thorax -13.7281 -0.393802 3.4657
lowerneck 2.99003 4.67328 -3.34103
upperneck 5.65744 5.83485 8.00177
head 0.912003 2.91355 3.11731
rclavicle 1.80273e-014 -6.32135e-014
rhumerus -56.4108 -23.2079 45.6593
rradius 25.6363
rwrist -60.9728
rhand -59.6992 49.7398
rfingers 7.12502
rthumb -31.8655 22.5069
lclavicle 1.80273e-014 -6.32135e-014
lhumerus -71.4958 46.4566 -71.6664
lradius 22.2809
lwrist -25.1202
lhand -5.48366 80.2684
lfingers 7.12502
lthumb 20.3287 970.776
rfemur -48.2646 16.081 7.22536
rtibia 31.973
rfoot -9.53835 -12.7251
rtoes -12.0123
lfemur -18.8296 -9.31394 -19.0905
ltibia 27.181
lfoot -20.9351 18.4307
ltoes -21.4364
673
root 6.43611 16.2202 -3.9 21.2676 -41.1049 -1.23271
lowerback 3.49829 -0.837845 -0.553207
upperback -10.8333 -1.07428 2.72437
thorax -13.7076 -0.336813 3.49234
lowerneck 3.41424 4.66389 -3.40894
upperneck 5.02753 5.85596 7.88484
head 0.637925 2.90637 3.0631
rclavicle 4.17324e-014 7.15625e-015
rhumerus -56.9953 -22.3926 46.391
rradius 25.5735
rwrist -60.8069
rhand -60.0036 52.0989
rfingers 7.12502
rthumb -32.1553 24.9242
lclavicle 4.17324e-014 7.15625e-015
lhumerus -73.0659 45.9186 -73.6425
lradius 22.4303
lwrist -24.1433
lhand -7.36444 81.2953
lfingers 7.12502
lthumb 18.5203 969.566
rfemur -48.5501 16.7517 6.77417
rtibia 31.337
rfoot -9.36414 -13.0542
rtoes -12.4195
lfemur -19.1087 -8.85166 -18.9702
ltibia 27.516
lfoot -21.4234 18.1972
ltoes -20.9587
674
root 6.40828 16.2072 -3.88267 21.6104 -41.1817 -1.57212
lowerback 3.55506 -0.808644 -0.321821
upperback -10.8557 -0.993121 2.88289
thorax -13.7778 -0.310963 3.52933
lowerneck 3.82979 4.715 -3.11116
upperneck 4.49337 5.97202 7.28623
head 0.419155 2.95263 2.78283
rclavicle 2.14563e-014 -2.94201e-014
rhumerus -57.1065 -21.8824 46.792
rradius 25.531
rwrist -60.7486
rhand -59.7761 57.6877
rfingers 7.12502
rthumb -31.9387 30.4695
lclavicle 2.14563e-014 -2.94201e-014
lhumerus -73.6063 45.0128 -74.2715
lradius 22.5461
lwrist -22.7962
lhand -8.99967 81.8217
lfingers 7.12502
lthumb 16.9468 968.898
rfemur -48.7226 17.3764 6.57143
rtibia 30.8815
rfoot -9.16244 -13.2186
rtoes -12.7747
lfemur -19.3563 -8.49087 -18.7189
ltibia 28.0791
lfoot -21.947 18.2352
ltoes -21.0347
675
root 6.38206 16.1896 -3.86667 21.8386 -41.2283 -1.63844
lowerback 3.55927 -0.71434 -0.170261
upperback -10.928 -0.842402 2.94045
thorax -13.8791 -0.249766 3.48918
lowerneck 4.08723 4.69926 -2.9857
upperneck 4.19013 5.9773 6.852
head 0.297866 2.94857 2.60294
rclavicle 3.83592e-014 3.97569e-015
rhumerus -56.9519 -20.8432 46.5794
rradius 25.6659
rwrist -61.4591
rhand -59.3202 64.5526
rfingers 7.12502
rthumb -31.5044 37.2485
lclavicle 3.83592e-014 3.97569e-015
lhumerus -74.5987 45.0942 -75.5975
lradius 22.5257
lwrist -23.2561
lhand -9.5665 81.9217
lfingers 7.12502
lthumb 16.4011 968.752
rfemur -49.0327 17.7254 6.26012
rtibia 30.66
rfoot -8.72888 -13.0266
rtoes -10.9692
lfemur -19.8358 -8.20794 -18.6651
ltibia 28.9175
lfoot -21.8382 18.5504
ltoes -23.3609
676
root 6.35505 16.1702 -3.85558 21.8993 -41.3763 -1.5726
lowerback 3.57179 -0.658469 -0.185452
upperback -10.8725 -0.765464 2.94979
thorax -13.8249 -0.211234 3.49411
lowerneck 3.90247 4.71202 -3.26481
upperneck 4.02729 5.99661 6.98349
head 0.26352 2.95702 2.69876
rclavicle 1.49834e-014 -3.97569e-015
rhumerus -56.8424 -20.8672 46.6732
rradius 25.6615
rwrist -61.0586
rhand -59.5419 64.776
rfingers 7.12502
rthumb -31.7156 37.5135
lclavicle 1.49834e-014 -3.97569e-015
lhumerus -73.9084 44.5011 -74.5679
lradius 22.4626
lwrist -22.2094
lhand -9.70749 82.3825
lfingers 7.12502
lthumb 16.2653 968.28
rfemur -49.3135 17.917 6.05555
rtibia 30.7345
rfoot -8.07804 -12.4718
rtoes -8.30631
lfemur -20.3839 -7.74876 -18.7641
ltibia 29.9976
lfoot -21.8175 18.7179
ltoes -25.8794
677
root 6.32795 16.1459 -3.85141 22.1625 -41.4602 -1.81598
lowerback 3.56044 -0.803035 -0.156667
upperback -10.7468 -0.939548 3.15048
thorax -13.6546 -0.287337 3.72036
lowerneck 3.68865 4.91878 -3.60222
upperneck 3.70263 6.28302 7.19424
head 0.16295 3.09743 2.82435
rclavicle 1.16972e-014 3.97569e-015
rhumerus -56.5793 -22.7044 47.2952
rradius 25.536
rwrist -59.085
rhand -59.557 59.3363
rfingers 7.12502
rthumb -31.73 32.0766
lclavicle 1.16972e-014 3.97569e-015
lhumerus -72.2824 42.9078 -72.0923
lradius 22.4293
lwrist -19.9564
lhand -9.73773 82.8955
lfingers 7.12502
lthumb 16.2362 967.764
rfemur -49.547 17.9111 6.40389
rtibia 31.1187
rfoot -7.27559 -11.9484
rtoes -9.80521
lfemur -21.0402 -7.2041 -18.5695
ltibia 31.2213
lfoot -21.8246 18.7509
ltoes -28.1176
678
root 6.30403 16.1167 -3.84703 22.629 -41.3452 -2.3505
lowerback 3.53442 -0.910416 0.282803
upperback -10.7799 -1.02324 3.33802
thorax -13.6775 -0.362887 3.69526
lowerneck 4.01467 5.09009 -3.68618
upperneck 3.42373 6.51626 7.21677
head 0.00163716 3.20386 2.82751
rclavicle 1.20299e-013 2.54444e-014
rhumerus -55.7504 -23.5784 46.9449
rradius 25.4886
rwrist -58.1495
rhand -59.1162 56.6147
rfingers 7.12502
rthumb -31.3101 29.2728
lclavicle 1.20299e-013 2.54444e-014
lhumerus -71.1982 42.2499 -70.3664
lradius 22.5095
lwrist -19.2672
lhand -9.18094 82.5674
lfingers 7.12502
lthumb 16.7723 968.137
rfemur -49.7482 17.5496 7.2933
rtibia 31.7684
rfoot -6.74736 -11.3525
rtoes -13.193
lfemur -21.69 -6.84887 -18.0447
ltibia 32.4062
lfoot -21.6311 18.8196
ltoes -29.6052
679
root 6.27894 16.0875 -3.83708 22.84 -41.2911 -2.85475
lowerback 3.82867 -0.820366 0.950682
upperback -10.8502 -0.829857 3.24389
thorax -13.9706 -0.344354 3.20148
lowerneck 4.23775 5.05311 -3.49537
upperneck 3.43502 6.46513 7.32101
head -0.0273279 3.17538 2.82281
rclavicle -9.61459e-014 3.49861e-014
rhumerus -54.6802 -22.8739 45.4299
rradius 25.5505
rwrist -58.733
rhand -59.0176 57.2668
rfingers 7.12502
rthumb -31.2161 29.9068
lclavicle -9.61459e-014 3.49861e-014
lhumerus -69.9654 42.7155 -68.3702
lradius 22.7551
lwrist -18.9984
lhand -8.87932 81.9084
lfingers 7.12502
lthumb 17.0626 968.821
rfemur -49.7869 17.1503 8.26313
rtibia 32.5797
rfoot -7.04259 -10.3953
rtoes -13.8454
lfemur -21.9744 -6.62588 -17.5776
ltibia 33.4485
lfoot -22.1755 18.6087
ltoes -28.4483
680
root 6.24961 16.0601 -3.82863 22.6841 -41.5679 -2.75275
lowerback 4.05776 -0.630858 1.04999
upperback -10.8023 -0.587318 2.90029
thorax -14.071 -0.260423 2.73071
lowerneck 3.99744 4.90937 -3.15383
upperneck 3.40039 6.28869 7.5131
head 0.0176709 3.09464 2.83538
rclavicle 1.48972e-014 -2.78299e-014
rhumerus -54.0062 -22.5271 43.9861
rradius 25.6922
rwrist -58.9727
rhand -59.4471 58.4935
rfingers 7.12502
rthumb -31.6253 31.2132
lclavicle 1.48972e-014 -2.78299e-014
lhumerus -69.2067 44.0559 -67.0035
lradius 22.9306
lwrist -19.3806
lhand -8.91366 81.2507
lfingers 7.12502
lthumb 17.0295 969.476
rfemur -50.0639 16.9297 8.52369
rtibia 33.4285
rfoot -7.70692 -9.48388
rtoes -12.7592
lfemur -22.1876 -6.36352 -17.6907
ltibia 34.3221
lfoot -22.5541 18.6675
ltoes -28.7836
681
root 6.2192 16.0349 -3.82675 22.4994 -41.931 -2.41369
lowerback 4.04126 -0.448702 0.77376
upperback -10.7228 -0.39345 2.66293
thorax -13.9692 -0.154064 2.58696
lowerneck 3.73695 4.79444 -3.12849
upperneck 3.34148 6.14165 7.68904
head 0.0464872 3.02592 2.89933
rclavicle -8.60272e-014 7.95139e-016
rhumerus -53.278 -22.9067 42.8156
rradius 25.8268
rwrist -58.5331
rhand -59.7597 59.0316
rfingers 7.12502
rthumb -31.923 31.8103
lclavicle -8.60272e-014 7.95139e-016
lhumerus -68.1808 45.2789 -65.3153
lradius 22.9564
lwrist -19.8771
lhand -8.51762 80.2829
lfingers 7.12502
lthumb 17.4107 970.477
rfemur -50.5501 16.7963 8.44778
rtibia 34.1812
rfoot -7.94666 -8.98397
rtoes -11.7825
lfemur -22.4835 -6.16104 -17.9775
ltibia 35.0995
lfoot -21.7776 19.4298
ltoes -32.2379
682
root 6.18961 16.015 -3.82992 22.6405 -42.1671 -2.59647
lowerback 4.09703 -0.397218 0.765469
upperback -10.7021 -0.3185 2.70164
thorax -13.983 -0.114386 2.62315
lowerneck 3.86571 4.82329 -3.46506
upperneck 3.06365 6.18134 7.96831
head -0.0880429 3.03567 3.04632
rclavicle -3.20913e-014 -6.24184e-014
rhumerus -51.8902 -23.4567 41.097
rradius 26.0046
rwrist -58.1575
rhand -59.2885 56.4964
rfingers 7.12502
rthumb -31.4742 29.1864
lclavicle -3.20913e-014 -6.24184e-014
lhumerus -65.8618 45.3772 -62.1099
lradius 22.9782
lwrist -19.1194
lhand -7.98953 79.2563
lfingers 7.12502
lthumb 17.9189 971.549
rfemur -50.9427 16.5722 8.93271
rtibia 34.794
rfoot -7.62127 -8.43586
rtoes -10.4535
lfemur -22.7445 -5.94368 -17.7892
ltibia 35.8562
lfoot -21.6193 19.5203
ltoes -32.8996
683
root 6.15902 16.0002 -3.83093 22.8268 -42.3368 -3.0116
lowerback 4.21981 -0.436055 0.98052
upperback -10.6284 -0.336565 2.77713
thorax -13.9732 -0.140878 2.58932
lowerneck 4.23612 4.99963 -3.74057
upperneck 2.48586 6.43419 8.31447
head -0.375433 3.14222 3.18953
rclavicle 6.05361e-014 -1.86858e-014
rhumerus -50.1004 -23.9809 38.7947
rradius 26.1974
rwrist -57.9484
rhand -58.7475 51.5132
rfingers 7.12502
rthumb -30.9587 24.1038
lclavicle 6.05361e-014 -1.86858e-014
lhumerus -63.1809 45.0173 -58.4091
lradius 23.1428
lwrist -17.6315
lhand -7.64655 78.4103
lfingers 7.12502
lthumb 18.2489 972.426
rfemur -51.1483 16.3354 9.68953
rtibia 35.3111
rfoot -6.76853 -7.87148
rtoes -9.99798
lfemur -22.8766 -5.73461 -17.4005
ltibia 36.5744
lfoot -22.6504 18.5616
ltoes -30.0593
684
root 6.12926 15.9902 -3.82534 22.5819 -42.4174 -3.15775
lowerback 4.54334 -0.494469 1.1635
upperback -10.4416 -0.387432 2.74971
thorax -13.9535 -0.184432 2.46477
lowerneck 4.21398 5.1243 -3.63674
upperneck 2.26419 6.62001 8.33761
head -0.451209 3.23273 3.17012
rclavicle 9.90445e-014 2.46493e-014
rhumerus -48.333 -24.8645 36.7312
rradius 26.2108
rwrist -57.3365
rhand -58.2636 47.1399
rfingers 7.12502
rthumb -30.4973 19.6438
lclavicle 9.90445e-014 2.46493e-014
lhumerus -60.7402 45.0078 -54.8043
lradius 23.4417
lwrist -16.262
lhand -7.25567 77.4324
lfingers 7.12502
lthumb 18.6249 973.439
rfemur -51.0477 16.1082 10.2419
rtibia 35.8336
rfoot -6.09226 -7.62923
rtoes -9.27233
lfemur -22.7325 -5.72451 -17.2214
ltibia 37.2607
lfoot -23.4161 17.7887
ltoes -28.4321
685
root 6.09777 15.9851 -3.81944 22.0809 -42.569 -2.99707
lowerback 4.89519 -0.453643 1.12766
upperback -10.2351 -0.336831 2.61641
thorax -13.9298 -0.16226 2.32858
lowerneck 3.89131 5.02722 -3.25337
upperneck 2.35957 6.5057 7.94162
head -0.32677 3.18908 2.97876
rclavicle 3.2638e-014 2.78299e-014
rhumerus -46.6727 -25.0797 34.4661
rradius 26.5144
rwrist -57.7246
rhand -57.3028 43.6216
rfingers 7.12502
rthumb -29.5805 15.9592
lclavicle 3.2638e-014 2.78299e-014
lhumerus -58.071 45.3998 -50.9441
lradius 23.6869
lwrist -15.1008
lhand -6.33122 76.077
lfingers 7.12502
lthumb 19.5139 974.882
rfemur -50.9584 15.9222 10.4908
rtibia 36.4422
rfoot -6.02115 -7.26032
rtoes -6.57787
lfemur -22.5197 -5.66764 -17.3268
ltibia 37.9698
lfoot -23.7837 17.55
ltoes -28.4183
686
root 6.06187 15.9671 -3.82345 21.8618 -42.7522 -2.90736
lowerback 5.02598 -0.291463 1.05919
upperback -10.1987 -0.12521 2.54768
thorax -13.9755 -0.0572212 2.2565
lowerneck 3.97394 4.89146 -3.37317
upperneck 2.40468 6.31693 7.76635
head -0.3129 3.09428 2.94532
rclavicle 7.44449e-014 -1.35174e-014
rhumerus -44.7162 -23.442 31.3371
rradius 27.3357
rwrist -60.2642
rhand -55.7693 39.6405
rfingers 7.12502
rthumb -28.1157 11.7281
lclavicle 7.44449e-014 -1.35174e-014
lhumerus -54.3708 45.0364 -45.5854
lradius 24.0846
lwrist -13.0807
lhand -5.09035 74.4893
lfingers 7.12502
lthumb 20.7066 976.595
rfemur -51.201 15.7968 10.7527
rtibia 37.1257
rfoot -6.12123 -6.77683
rtoes -6.33312
lfemur -22.6113 -5.36577 -17.353
ltibia 38.763
lfoot -23.7921 17.4915
ltoes -29.1351
